<svg xmlns="http://www.w3.org/2000/svg" xmlns:xlink="http://www.w3.org/1999/xlink" width="3200" zoomAndPan="magnify" viewBox="0 0 2400 895.499968" height="1194" preserveAspectRatio="xMidYMid meet" version="1.0"><defs><g/><clipPath id="72e0fbe6bb"><path d="M 283 89 L 553 89 L 553 778 L 283 778 Z M 283 89 " clip-rule="nonzero"/></clipPath><clipPath id="e1b5da92b8"><path d="M 868.566406 716.785156 L 147.929688 1079.003906 L -167.5 451.460938 L 553.136719 89.242188 Z M 868.566406 716.785156 " clip-rule="nonzero"/></clipPath><clipPath id="7b24fc2dca"><path d="M 868.566406 716.785156 L 147.929688 1079.003906 L -167.5 451.460938 L 553.136719 89.242188 Z M 868.566406 716.785156 " clip-rule="nonzero"/></clipPath><clipPath id="fdbd7cea04"><path d="M 156 399 L 530 399 L 530 826 L 156 826 Z M 156 399 " clip-rule="nonzero"/></clipPath><clipPath id="1fb80ac9de"><path d="M 868.566406 716.785156 L 147.929688 1079.003906 L -167.5 451.460938 L 553.136719 89.242188 Z M 868.566406 716.785156 " clip-rule="nonzero"/></clipPath><clipPath id="ffe5cf5a77"><path d="M 868.566406 716.785156 L 147.929688 1079.003906 L -167.5 451.460938 L 553.136719 89.242188 Z M 868.566406 716.785156 " clip-rule="nonzero"/></clipPath><clipPath id="df549a9c43"><path d="M 88 619 L 599 619 L 599 863 L 88 863 Z M 88 619 " clip-rule="nonzero"/></clipPath><clipPath id="0c04e96f0e"><path d="M 868.566406 716.785156 L 147.929688 1079.003906 L -167.5 451.460938 L 553.136719 89.242188 Z M 868.566406 716.785156 " clip-rule="nonzero"/></clipPath><clipPath id="e73c3e215f"><path d="M 868.566406 716.785156 L 147.929688 1079.003906 L -167.5 451.460938 L 553.136719 89.242188 Z M 868.566406 716.785156 " clip-rule="nonzero"/></clipPath></defs><g clip-path="url(#72e0fbe6bb)"><g clip-path="url(#e1b5da92b8)"><g clip-path="url(#7b24fc2dca)"><path fill="#e6dad0" d="M 552.355469 89.097656 C 270.21875 296.824219 161.199219 519.136719 469.277344 777.023438 C 316.789062 565.269531 387.945312 331.765625 552.355469 89.097656 Z M 552.355469 89.097656 " fill-opacity="1" fill-rule="evenodd"/></g></g></g><g clip-path="url(#fdbd7cea04)"><g clip-path="url(#1fb80ac9de)"><g clip-path="url(#ffe5cf5a77)"><path fill="#e6dad0" d="M 529.527344 825.890625 C 186.171875 745.1875 62.710938 608.933594 231.214844 399.035156 C 211.496094 591.140625 300.128906 737.703125 529.527344 825.890625 Z M 529.527344 825.890625 " fill-opacity="1" fill-rule="evenodd"/></g></g></g><g clip-path="url(#df549a9c43)"><g clip-path="url(#0c04e96f0e)"><g clip-path="url(#e73c3e215f)"><path fill="#e6dad0" d="M 598.707031 852.425781 C 321.15625 890.621094 19.566406 819.722656 102.527344 619.429688 C 172.351562 789.84375 366.015625 840.152344 598.707031 852.425781 Z M 598.707031 852.425781 " fill-opacity="1" fill-rule="evenodd"/></g></g></g><g fill="#e6dad0" fill-opacity="1"><g transform="translate(607.999761, 711.731482)"><g><path d="M 236.1875 4.21875 C 197.21875 4.21875 161.363281 -4.914062 128.625 -23.1875 C 95.894531 -41.46875 69.988281 -66.976562 50.90625 -99.71875 C 31.832031 -132.457031 22.296875 -169.3125 22.296875 -210.28125 C 22.296875 -251.25 31.832031 -288 50.90625 -320.53125 C 69.988281 -353.070312 95.894531 -378.476562 128.625 -396.75 C 161.363281 -415.03125 197.21875 -424.171875 236.1875 -424.171875 C 275.550781 -424.171875 311.597656 -415.03125 344.328125 -396.75 C 377.066406 -378.476562 402.875 -353.070312 421.75 -320.53125 C 440.632812 -288 450.078125 -251.25 450.078125 -210.28125 C 450.078125 -169.3125 440.632812 -132.457031 421.75 -99.71875 C 402.875 -66.976562 377.066406 -41.46875 344.328125 -23.1875 C 311.597656 -4.914062 275.550781 4.21875 236.1875 4.21875 Z M 236.1875 -55.4375 C 263.90625 -55.4375 288.609375 -61.757812 310.296875 -74.40625 C 331.984375 -87.0625 348.953125 -105.140625 361.203125 -128.640625 C 373.453125 -152.140625 379.578125 -179.351562 379.578125 -210.28125 C 379.578125 -241.207031 373.453125 -268.316406 361.203125 -291.609375 C 348.953125 -314.910156 331.984375 -332.785156 310.296875 -345.234375 C 288.609375 -357.691406 263.90625 -363.921875 236.1875 -363.921875 C 208.46875 -363.921875 183.765625 -357.691406 162.078125 -345.234375 C 140.390625 -332.785156 123.414062 -314.910156 111.15625 -291.609375 C 98.90625 -268.316406 92.78125 -241.207031 92.78125 -210.28125 C 92.78125 -179.351562 98.90625 -152.140625 111.15625 -128.640625 C 123.414062 -105.140625 140.390625 -87.0625 162.078125 -74.40625 C 183.765625 -61.757812 208.46875 -55.4375 236.1875 -55.4375 Z M 236.1875 -55.4375 "/></g></g></g><g fill="#e6dad0" fill-opacity="1"><g transform="translate(1056.220529, 711.731482)"><g><path d="M 113.875 -445.859375 L 113.875 0 L 45.1875 0 L 45.1875 -445.859375 Z M 113.875 -445.859375 "/></g></g></g><g fill="#e6dad0" fill-opacity="1"><g transform="translate(1191.167094, 711.731482)"><g><path d="M 22.296875 -167.5 C 22.296875 -200.84375 29.222656 -230.363281 43.078125 -256.0625 C 56.929688 -281.769531 75.804688 -301.753906 99.703125 -316.015625 C 123.609375 -330.273438 150.023438 -337.40625 178.953125 -337.40625 C 205.054688 -337.40625 227.847656 -332.285156 247.328125 -322.046875 C 266.816406 -311.804688 282.382812 -299.050781 294.03125 -283.78125 L 294.03125 -331.984375 L 363.3125 -331.984375 L 363.3125 0 L 294.03125 0 L 294.03125 -49.40625 C 282.382812 -33.738281 266.515625 -20.679688 246.421875 -10.234375 C 226.335938 0.203125 203.441406 5.421875 177.734375 5.421875 C 149.222656 5.421875 123.113281 -1.90625 99.40625 -16.5625 C 75.707031 -31.226562 56.929688 -51.710938 43.078125 -78.015625 C 29.222656 -104.328125 22.296875 -134.15625 22.296875 -167.5 Z M 294.03125 -166.296875 C 294.03125 -189.191406 289.304688 -209.070312 279.859375 -225.9375 C 270.421875 -242.8125 258.070312 -255.664062 242.8125 -264.5 C 227.550781 -273.34375 211.082031 -277.765625 193.40625 -277.765625 C 175.726562 -277.765625 159.257812 -273.441406 144 -264.796875 C 128.738281 -256.160156 116.382812 -243.507812 106.9375 -226.84375 C 97.5 -210.175781 92.78125 -190.394531 92.78125 -167.5 C 92.78125 -144.601562 97.5 -124.519531 106.9375 -107.25 C 116.382812 -89.976562 128.835938 -76.820312 144.296875 -67.78125 C 159.765625 -58.738281 176.132812 -54.21875 193.40625 -54.21875 C 211.082031 -54.21875 227.550781 -58.632812 242.8125 -67.46875 C 258.070312 -76.3125 270.421875 -89.269531 279.859375 -106.34375 C 289.304688 -123.414062 294.03125 -143.398438 294.03125 -166.296875 Z M 294.03125 -166.296875 "/></g></g></g><g fill="#e6dad0" fill-opacity="1"><g transform="translate(1575.528089, 711.731482)"><g><path d="M 22.296875 -166.296875 C 22.296875 -200.441406 29.222656 -230.46875 43.078125 -256.375 C 56.929688 -282.28125 76.109375 -302.257812 100.609375 -316.3125 C 125.117188 -330.375 153.238281 -337.40625 184.96875 -337.40625 C 225.132812 -337.40625 258.375 -327.863281 284.6875 -308.78125 C 311 -289.707031 328.773438 -262.492188 338.015625 -227.140625 L 263.90625 -227.140625 C 257.875 -243.609375 248.226562 -256.460938 234.96875 -265.703125 C 221.71875 -274.941406 205.050781 -279.5625 184.96875 -279.5625 C 156.851562 -279.5625 134.457031 -269.617188 117.78125 -249.734375 C 101.113281 -229.859375 92.78125 -202.046875 92.78125 -166.296875 C 92.78125 -130.546875 101.113281 -102.628906 117.78125 -82.546875 C 134.457031 -62.460938 156.851562 -52.421875 184.96875 -52.421875 C 224.738281 -52.421875 251.050781 -69.894531 263.90625 -104.84375 L 338.015625 -104.84375 C 328.367188 -71.09375 310.289062 -44.273438 283.78125 -24.390625 C 257.269531 -4.515625 224.332031 5.421875 184.96875 5.421875 C 153.238281 5.421875 125.117188 -1.707031 100.609375 -15.96875 C 76.109375 -30.226562 56.929688 -50.3125 43.078125 -76.21875 C 29.222656 -102.125 22.296875 -132.148438 22.296875 -166.296875 Z M 22.296875 -166.296875 "/></g></g></g><g fill="#e6dad0" fill-opacity="1"><g transform="translate(1912.897995, 711.731482)"><g><path d="M 216.90625 -337.40625 C 242.207031 -337.40625 264.800781 -331.984375 284.6875 -321.140625 C 304.570312 -310.296875 320.238281 -294.226562 331.6875 -272.9375 C 343.132812 -251.644531 348.859375 -225.9375 348.859375 -195.8125 L 348.859375 0 L 280.765625 0 L 280.765625 -185.578125 C 280.765625 -215.296875 273.332031 -238.085938 258.46875 -253.953125 C 243.613281 -269.828125 223.332031 -277.765625 197.625 -277.765625 C 171.914062 -277.765625 151.53125 -269.828125 136.46875 -253.953125 C 121.40625 -238.085938 113.875 -215.296875 113.875 -185.578125 L 113.875 0 L 45.1875 0 L 45.1875 -445.859375 L 113.875 -445.859375 L 113.875 -293.421875 C 125.519531 -307.484375 140.28125 -318.328125 158.15625 -325.953125 C 176.03125 -333.585938 195.613281 -337.40625 216.90625 -337.40625 Z M 216.90625 -337.40625 "/></g></g></g></svg>